<svg width="24" height="24" viewBox="0 0 24 24" fill="none" xmlns="http://www.w3.org/2000/svg">
<path d="M3.12132 1.70708C2.7308 1.31655 2.09763 1.31655 1.70711 1.70708C1.31658 2.0976 1.31658 2.73077 1.70711 3.12129L4.55533 5.96952C4.03809 6.40895 3.56769 6.86568 3.14546 7.31606C2.15683 8.3706 1.40207 9.42131 0.894336 10.2075C0.63985 10.6015 0.445792 10.9316 0.313971 11.166C0.248023 11.2832 0.19754 11.3767 0.162753 11.4424C0.145357 11.4753 0.131875 11.5013 0.122338 11.5198L0.11099 11.542L0.107539 11.5489L0.10637 11.5512L0.105925 11.5521C0.105741 11.5525 0.105573 11.5528 1 12L0.105573 11.5528C-0.0351909 11.8343 -0.0351909 12.1657 0.105573 12.4472L1 12C0.105573 12.4472 0.105741 12.4475 0.105925 12.4479L0.10637 12.4488L0.107539 12.4511L0.11099 12.458L0.122338 12.4802C0.131875 12.4987 0.145357 12.5247 0.162753 12.5576C0.19754 12.6233 0.248023 12.7168 0.313971 12.834C0.445792 13.0684 0.63985 13.3985 0.894336 13.7925C1.40207 14.5787 2.15683 15.6294 3.14546 16.6839C5.10448 18.7736 8.10049 21 12 21C14.2483 21 16.1963 20.2599 17.8184 19.2325L21.2929 22.7071C21.6834 23.0976 22.3166 23.0976 22.7071 22.7071C23.0976 22.3166 23.0976 21.6834 22.7071 21.2929L19.4447 18.0305C19.4447 18.0304 19.4447 18.0304 19.4447 18.0304L18.0255 16.6112C18.0255 16.6112 18.0255 16.6113 18.0255 16.6113L15.2164 13.8022C15.2164 13.8021 15.2164 13.8021 15.2164 13.8021L14.4339 13.0196C14.4339 13.0196 14.4338 13.0196 14.4338 13.0196L7.63766 6.22342C7.63767 6.22341 7.63768 6.2234 7.6377 6.22339L6.18171 4.7674C6.1817 4.76741 6.18168 4.76742 6.18167 4.76743L3.12132 1.70708ZM5.97453 7.38871L8.55398 9.96816C8.2023 10.5636 8 11.2586 8 12C8 14.2091 9.79086 16 12 16C12.7416 16 13.4365 15.7977 14.0318 15.446L16.3624 17.7766C15.0829 18.5139 13.6232 19 12 19C8.89951 19 6.39552 17.2264 4.60454 15.3161C3.71817 14.3706 3.03543 13.4213 2.57441 12.7075C2.39492 12.4296 2.25003 12.1889 2.14074 12C2.25003 11.8111 2.39492 11.5704 2.57441 11.2925C3.03543 10.5787 3.71817 9.6294 4.60454 8.68394C5.02281 8.23779 5.47997 7.7991 5.97453 7.38871ZM10.0676 11.4818L12.5182 13.9324C12.353 13.9765 12.1793 14 12 14C10.8954 14 10 13.1046 10 12C10 11.8206 10.0235 11.647 10.0676 11.4818ZM21.4256 12.7075C20.9783 13.4 20.3224 14.3142 19.4742 15.2315L20.8894 16.6467C21.8609 15.6047 22.6039 14.5694 23.1057 13.7925C23.3601 13.3985 23.5542 13.0684 23.686 12.834C23.752 12.7168 23.8025 12.6233 23.8372 12.5576C23.8546 12.5247 23.8681 12.4987 23.8777 12.4802L23.889 12.458L23.8925 12.4511L23.8936 12.4488L23.8941 12.4479C23.8943 12.4475 23.8944 12.4472 23 12L23.8944 12.4472C24.0352 12.1657 24.0352 11.8343 23.8944 11.5528L23 12C23.8944 11.5528 23.8943 11.5525 23.8941 11.5521L23.8936 11.5512L23.8925 11.5489L23.889 11.542L23.8777 11.5198C23.8681 11.5013 23.8546 11.4753 23.8372 11.4424C23.8025 11.3767 23.752 11.2832 23.686 11.166C23.5542 10.9316 23.3601 10.6015 23.1057 10.2075C22.5979 9.42131 21.8432 8.3706 20.8545 7.31606C18.8955 5.22644 15.8995 3 12 3C10.5538 3 9.23179 3.30625 8.04092 3.79818L9.60374 5.36101C10.3568 5.13133 11.1563 5 12 5C15.1005 5 17.6045 6.77356 19.3955 8.68394C20.2818 9.6294 20.9646 10.5787 21.4256 11.2925C21.6051 11.5704 21.75 11.8111 21.8593 12C21.75 12.1889 21.6051 12.4296 21.4256 12.7075Z" fill="#7F8B99"/>
</svg>
